# Blender v2.78 (sub 0) OBJ File: 'mainCorridor.blend'
# www.blender.org
o Cube
v -0.119189 0.388764 -0.041151
v -0.076088 0.388764 -0.202397
v -0.119189 0.388764 -0.202397
v -0.076088 0.388764 -0.041151
v -0.076088 0.009958 -0.041151
v -0.119189 0.009958 -0.041151
v -0.119189 0.362260 -0.202397
v -0.119189 0.009958 -0.088138
v -0.076088 0.362260 -0.202397
v -0.076088 0.009958 -0.088138
v -0.076089 0.362260 -0.088138
v -0.119189 0.362260 -0.088138
v -0.211103 0.388764 0.168162
v -0.211103 0.009958 0.168162
v -0.211103 0.388764 0.201712
v -0.211103 0.009958 0.201712
v -0.376157 0.388764 0.168162
v -0.376157 0.388764 0.201712
v -0.376157 0.354115 0.168162
v -0.241646 0.009958 0.168162
v -0.241646 0.009958 0.201712
v -0.376157 0.354115 0.201712
v -0.241646 0.354115 0.168162
v -0.241646 0.354115 0.201712
v 0.190470 0.388764 0.378908
v 0.160804 0.388764 0.378908
v 0.190470 0.388764 0.193896
v 0.160804 0.388764 0.193896
v 0.160804 0.009958 0.193896
v 0.190470 0.009958 0.193896
v 0.160804 0.009958 0.234746
v 0.190470 0.357735 0.378908
v 0.160804 0.357735 0.378908
v 0.190470 0.009958 0.234746
v 0.160804 0.357735 0.234746
v 0.190470 0.357735 0.234746
v -0.379918 0.009958 0.378908
v -0.379918 0.388764 0.378908
v -0.379918 0.009958 -0.202397
v -0.379918 0.388764 -0.202397
v 0.439553 0.009958 0.378908
v 0.439553 0.388764 0.378908
v 0.439553 0.009958 -0.202397
v 0.439553 0.388764 -0.202397
v -0.099348 0.388764 0.378908
v -0.211103 0.388764 0.378908
v -0.211103 0.009958 0.378908
v -0.099348 0.009958 0.378908
v -0.099348 0.388764 0.135701
v -0.211103 0.388764 0.135701
v -0.211103 0.009958 0.135701
v -0.099348 0.009958 0.135701
v -0.099348 0.009958 0.213620
v -0.099348 0.388764 0.213620
v 0.202658 0.009958 0.135701
v 0.202658 0.388764 0.135701
v 0.202658 0.009958 0.213620
v 0.202658 0.388764 0.213620
v -0.211103 0.388764 0.169251
v -0.211103 0.009958 0.169251
v -0.379918 0.388764 0.004923
v -0.379918 0.388764 -0.072849
v -0.379918 0.009958 -0.072849
v -0.379918 0.009958 0.004923
v -0.032786 0.388764 0.004923
v -0.032786 0.388764 -0.072849
v -0.032786 0.009958 -0.072849
v -0.032786 0.009958 0.004923
v -0.119189 0.388764 -0.202397
v -0.076088 0.388764 -0.202397
v -0.076088 0.009958 -0.202397
v -0.119189 0.009958 -0.202397
v 0.190470 0.388764 0.378908
v 0.160804 0.388764 0.378908
v 0.160804 0.009958 0.378908
v 0.190470 0.009958 0.378908
v 0.109789 0.009958 0.135701
v 0.124886 0.388764 0.135701
v 0.202658 0.009958 -0.094778
v 0.202658 0.388764 -0.094778
v 0.124886 0.388764 -0.094778
v 0.109789 0.009958 -0.094778
v 0.439553 0.009958 0.150961
v 0.439553 0.009958 0.059009
v -0.379918 0.009958 0.058608
v -0.379918 0.009958 0.149726
v 0.439553 0.215424 0.059009
v 0.439553 0.215424 0.150961
v -0.379918 0.206345 0.004923
v -0.244053 0.388764 0.168162
v 0.190470 0.388764 0.235074
v 0.160804 0.388764 0.234486
v -0.243860 0.388764 0.201712
v -0.119189 0.388764 -0.088929
vt 0.0019 1.0000
vt 0.0671 0.0000
vt 0.0671 1.0000
vt 0.8329 0.2975
vt 0.0077 0.0001
vt 0.8329 0.0001
vt 0.7773 0.7500
vt 0.4175 0.0000
vt 0.0576 0.2500
vt 0.0019 0.0000
vt 0.0449 0.9085
vt 0.0019 1.0000
vt 0.0480 1.0000
vt 0.0051 0.9085
vt 0.0480 0.0000
vt 0.8330 0.0000
vt 0.0019 1.0000
vt 0.0019 0.0000
vt 0.0651 1.0000
vt 0.0019 0.0000
vt 0.0651 0.0000
vt 0.0020 0.4575
vt 0.8329 0.0001
vt 0.8329 0.4575
vt 0.0020 0.0001
vt 0.8311 0.2760
vt 0.0020 0.2760
vt 0.0718 0.9181
vt 0.0019 1.0000
vt 0.0019 0.0000
vt 0.0474 0.0000
vt 0.0019 1.0000
vt 0.0019 0.0000
vt 0.4030 0.5173
vt 0.0020 0.5173
vt 0.0020 0.4622
vt 0.8330 0.0000
vt 0.0019 1.0000
vt 0.0019 0.0000
vt 0.8330 0.0000
vt 0.0019 1.0000
vt 0.0019 0.0000
vt 0.8330 0.0000
vt 0.0019 1.0000
vt 0.0019 0.0000
vt 0.0019 0.0000
vt 0.8330 1.0000
vt 0.0019 1.0000
vt 0.8330 0.0000
vt 0.0019 1.0000
vt 0.0019 0.0000
vt 0.8330 0.0000
vt 0.0019 1.0000
vt 0.0019 0.0000
vt 0.8330 0.0000
vt 0.0019 1.0000
vt 0.0019 0.0000
vt 0.8330 0.0000
vt 0.0019 1.0000
vt 0.0019 0.0000
vt 0.8330 0.0000
vt 0.0019 1.0000
vt 0.8330 0.0000
vt 0.0019 1.0000
vt 0.0019 0.0000
vt 0.4021 0.0000
vt 0.8330 1.0000
vt 0.0019 1.0000
vt 0.8330 0.0000
vt 0.0019 1.0000
vt 0.0019 0.0000
vt 0.8330 0.0000
vt 0.0019 1.0000
vt 0.0019 0.0000
vt 0.8330 0.0000
vt 0.0019 1.0000
vt 0.0019 0.0000
vt 0.8330 0.0000
vt 0.0019 1.0000
vt 0.0019 0.0000
vt 0.8330 0.0000
vt 0.0019 1.0000
vt 0.0019 0.0000
vt 0.3846 0.3977
vt 0.0020 0.0001
vt 0.4900 0.3977
vt 0.2225 0.0001
vt 0.4252 0.0001
vt 0.2406 0.9999
vt 0.0019 0.9300
vt 0.0625 0.9300
vt 0.0625 1.0000
vt 0.8330 0.0000
vt 0.0019 0.0000
vt 0.6406 0.0001
vt 0.0020 0.9999
vt 0.0020 0.0001
vt 0.8329 0.0001
vt 0.0020 0.4674
vt 0.0020 0.0001
vt 0.8181 0.0001
vt 0.0020 0.4019
vt 0.0020 0.0001
vt 0.0025 0.9181
vt 0.0724 0.0000
vt 0.0724 1.0000
vt 0.8329 0.0001
vt 0.0020 0.2550
vt 0.0020 0.0001
vt 0.8314 0.2755
vt 0.0020 0.0001
vt 0.8329 0.0001
vt 0.8193 0.4019
vt 0.0020 0.0001
vt 0.8329 0.0001
vt 0.0033 0.9300
vt 0.0837 0.0000
vt 0.0837 1.0000
vt 0.6879 0.9999
vt 0.0001 0.0001
vt 0.6879 0.0001
vt 0.0019 0.0000
vt 0.0020 0.2975
vt 0.0576 0.7500
vt 0.4175 1.0000
vt 0.7773 0.2500
vt 0.0483 1.0000
vt 0.0449 0.0000
vt 0.0051 0.0000
vt 0.0019 1.0000
vt 0.8330 1.0000
vt 0.0019 1.0000
vt 0.0020 0.0001
vt 0.8329 0.0001
vt 0.0718 0.0000
vt 0.0714 1.0000
vt 0.0474 1.0000
vt 0.4030 0.0001
vt 0.4030 0.4622
vt 0.4030 0.9999
vt 0.0020 0.9999
vt 0.8330 1.0000
vt 0.8330 1.0000
vt 0.8330 1.0000
vt 0.8330 0.0000
vt 0.8330 1.0000
vt 0.8330 1.0000
vt 0.8330 1.0000
vt 0.8330 1.0000
vt 0.8330 1.0000
vt 0.8330 1.0000
vt 0.0019 0.0000
vt 0.8330 0.0000
vt 0.8330 1.0000
vt 0.8330 1.0000
vt 0.8330 1.0000
vt 0.8330 1.0000
vt 0.8330 1.0000
vt 0.8329 0.0001
vt 0.8329 0.8356
vt 0.4900 0.8356
vt 0.3846 0.8356
vt 0.0020 0.8356
vt 0.2070 0.9999
vt 0.0038 0.9999
vt 0.0038 0.7771
vt 0.0020 0.5873
vt 0.0038 0.5873
vt 0.6425 0.5873
vt 0.6425 0.9999
vt 0.0038 0.4605
vt 0.0038 0.0001
vt 0.1354 0.0001
vt 0.6425 0.4605
vt 0.4483 0.0001
vt 0.6425 0.0001
vt 0.0019 1.0000
vt 0.0019 0.0000
vt 0.0625 0.0000
vt 0.6406 0.9999
vt 0.8329 0.4674
vt 0.8329 0.4019
vt 0.0019 1.0000
vt 0.0025 0.0000
vt 0.8329 0.2550
vt 0.0020 0.2755
vt 0.0020 0.4019
vt 0.0019 1.0000
vt 0.0033 0.0000
vt 0.0001 0.9999
vn 0.0000 0.0000 -1.0000
vn -1.0000 0.0000 0.0000
vn 1.0000 -0.0000 0.0000
vn -0.0000 -0.0000 1.0000
vn 0.0000 -1.0000 -0.0000
vn -0.9992 0.0398 0.0000
vn 0.0000 1.0000 0.0000
s off
f 11/1/1 8/2/1 12/3/1
f 7/4/2 94/5/2 3/6/2
f 11/7/3 2/8/3 4/9/3
f 14/10/1 23/11/1 13/12/1
f 15/13/4 24/14/4 16/15/4
f 17/16/2 22/17/2 18/18/2
f 24/19/2 20/20/2 21/21/2
f 22/22/5 23/23/5 24/24/5
f 32/25/3 91/26/3 25/27/3
f 35/28/2 28/29/2 29/30/2
f 34/31/4 35/32/4 31/33/4
f 75/34/1 74/35/1 73/36/1
f 72/37/4 40/38/4 39/39/4
f 57/40/3 56/41/3 58/42/3
f 52/43/1 50/44/1 49/45/1
f 45/46/3 53/47/3 54/48/3
f 47/49/1 38/50/1 46/51/1
f 46/52/2 60/53/2 47/54/2
f 53/55/4 58/56/4 54/57/4
f 49/58/1 77/59/1 52/60/1
f 40/61/3 63/62/3 39/39/3
f 66/63/3 68/64/3 67/65/3
f 89/66/4 68/67/4 65/68/4
f 62/69/1 67/70/1 63/71/1
f 71/72/4 44/73/4 70/74/4
f 81/75/1 79/76/1 82/77/1
f 78/78/6 82/79/6 77/80/6
f 55/81/3 80/82/3 56/83/3
f 88/84/2 42/85/2 87/86/2
f 48/87/7 75/88/7 71/89/7
f 7/90/4 9/91/4 2/92/4
f 50/93/2 60/53/2 59/94/2
f 44/95/5 38/96/5 40/97/5
f 7/98/5 11/99/5 12/100/5
f 90/101/1 19/102/1 17/103/1
f 36/104/3 30/105/3 27/106/3
f 35/107/5 32/108/5 33/109/5
f 35/110/2 26/111/2 92/112/2
f 93/113/4 22/114/4 24/115/4
f 12/116/2 6/117/2 1/118/2
f 61/119/3 37/120/3 64/121/3
f 11/1/1 10/122/1 8/2/1
f 7/4/2 12/123/2 94/5/2
f 5/124/3 10/125/3 11/7/3
f 11/7/3 9/126/3 2/8/3
f 4/9/3 5/124/3 11/7/3
f 90/127/1 13/12/1 23/11/1
f 14/10/1 20/128/1 23/11/1
f 21/129/4 16/15/4 24/14/4
f 15/13/4 93/130/4 24/14/4
f 17/16/2 19/131/2 22/17/2
f 24/19/2 23/132/2 20/20/2
f 22/22/5 19/133/5 23/23/5
f 32/25/3 36/134/3 91/26/3
f 29/30/2 31/135/2 35/28/2
f 35/28/2 92/136/2 28/29/2
f 34/31/4 36/137/4 35/32/4
f 42/85/1 41/138/1 76/139/1
f 75/34/1 48/140/1 45/141/1
f 42/85/1 76/139/1 73/36/1
f 45/141/1 74/35/1 75/34/1
f 73/36/1 76/139/1 75/34/1
f 72/37/4 69/142/4 40/38/4
f 57/40/3 55/143/3 56/41/3
f 52/43/1 51/144/1 50/44/1
f 45/46/3 48/145/3 53/47/3
f 47/49/1 37/146/1 38/50/1
f 46/52/2 59/147/2 60/53/2
f 53/55/4 57/148/4 58/56/4
f 49/58/1 78/149/1 77/59/1
f 40/61/3 62/150/3 63/62/3
f 66/63/3 65/151/3 68/64/3
f 65/68/4 61/152/4 89/66/4
f 89/66/4 64/153/4 68/67/4
f 62/69/1 66/154/1 67/70/1
f 71/72/4 43/155/4 44/73/4
f 81/75/1 80/156/1 79/76/1
f 78/78/6 81/157/6 82/79/6
f 55/81/3 79/158/3 80/82/3
f 44/159/2 43/160/2 87/86/2
f 43/160/2 84/161/2 87/86/2
f 83/162/2 41/163/2 88/84/2
f 44/159/2 87/86/2 42/85/2
f 88/84/2 41/163/2 42/85/2
f 72/164/7 39/165/7 63/166/7
f 64/167/7 85/168/7 72/164/7
f 72/164/7 63/166/7 64/167/7
f 84/169/7 43/170/7 71/89/7
f 71/89/7 72/164/7 85/168/7
f 86/171/7 37/172/7 47/173/7
f 71/89/7 85/168/7 48/87/7
f 83/174/7 84/169/7 75/88/7
f 76/175/7 41/176/7 83/174/7
f 47/173/7 48/87/7 86/171/7
f 75/88/7 76/175/7 83/174/7
f 84/169/7 71/89/7 75/88/7
f 86/171/7 48/87/7 85/168/7
f 2/92/4 3/177/4 7/90/4
f 7/90/4 72/178/4 71/179/4
f 71/179/4 9/91/4 7/90/4
f 50/93/2 51/144/2 60/53/2
f 44/95/5 42/180/5 38/96/5
f 7/98/5 9/181/5 11/99/5
f 90/101/1 23/182/1 19/102/1
f 27/106/3 91/183/3 36/104/3
f 36/104/3 34/184/3 30/105/3
f 35/107/5 36/185/5 32/108/5
f 35/110/2 33/186/2 26/111/2
f 93/113/4 18/187/4 22/114/4
f 1/118/2 94/188/2 12/116/2
f 12/116/2 8/189/2 6/117/2
f 61/119/3 38/190/3 37/120/3
o pPlane2.000
v 0.441863 0.009332 0.149851
v 0.441863 0.009332 0.058538
v 0.441863 0.215496 0.058538
v 0.441863 0.215496 0.149851
v 0.438922 0.215496 0.058538
v 0.438922 0.215496 0.149851
v 0.438922 0.009332 0.058538
v 0.438922 0.009332 0.149851
v -0.377381 0.009332 0.149850
v -0.377381 0.009332 0.058538
v -0.377381 0.215496 0.058538
v -0.377381 0.215496 0.149850
v -0.380322 0.215496 0.058538
v -0.380322 0.215496 0.149850
v -0.380322 0.009332 0.058538
v -0.380322 0.009332 0.149850
vt 0.9546 0.3385
vt 0.8400 0.0010
vt 0.8400 0.3385
vt 0.3561 0.9607
vt 0.5632 0.9674
vt 0.5632 0.9607
vt 0.8393 0.0027
vt 0.9553 0.3350
vt 0.9553 0.0027
vt 0.3561 0.4865
vt 0.5632 0.4932
vt 0.5632 0.4865
vt 0.3494 0.0190
vt 0.3494 0.4865
vt 0.5699 0.4865
vt 0.5632 0.0190
vt 0.9546 0.0010
vt 0.3561 0.9674
vt 0.8393 0.3350
vt 0.3561 0.4932
vt 0.3561 0.0190
vt 0.5699 0.0190
vt 0.9546 0.3385
vt 0.8400 0.0010
vt 0.8400 0.3385
vt 0.3561 0.9607
vt 0.5632 0.9674
vt 0.5632 0.9607
vt 0.8393 0.0027
vt 0.9553 0.3350
vt 0.9553 0.0027
vt 0.3561 0.4865
vt 0.5632 0.4932
vt 0.5632 0.4865
vt 0.3494 0.0190
vt 0.3494 0.4865
vt 0.5699 0.4865
vt 0.5632 0.0190
vt 0.9546 0.0010
vt 0.3561 0.9674
vt 0.8393 0.3350
vt 0.3561 0.4932
vt 0.3561 0.0190
vt 0.5699 0.0190
vn 1.0000 -0.0000 0.0000
vn 0.0000 1.0000 -0.0000
vn -1.0000 0.0000 -0.0000
vn -0.0000 -1.0000 0.0000
vn 0.0000 0.0000 -1.0000
vn 0.0000 0.0000 1.0000
s off
f 96/191/8 98/192/8 95/193/8
f 97/194/9 100/195/9 98/196/9
f 99/197/10 102/198/10 100/199/10
f 101/200/11 95/201/11 102/202/11
f 101/200/12 97/203/12 96/204/12
f 95/205/13 100/206/13 102/202/13
f 96/191/8 97/207/8 98/192/8
f 97/194/9 99/208/9 100/195/9
f 99/197/10 101/209/10 102/198/10
f 101/200/11 96/210/11 95/201/11
f 101/200/12 99/211/12 97/203/12
f 95/205/13 98/212/13 100/206/13
f 104/213/8 106/214/8 103/215/8
f 105/216/9 108/217/9 106/218/9
f 107/219/10 110/220/10 108/221/10
f 109/222/11 103/223/11 110/224/11
f 109/222/12 105/225/12 104/226/12
f 103/227/13 108/228/13 110/224/13
f 104/213/8 105/229/8 106/214/8
f 105/216/9 107/230/9 108/217/9
f 107/219/10 109/231/10 110/220/10
f 109/222/11 104/232/11 103/223/11
f 109/222/12 107/233/12 105/225/12
f 103/227/13 106/234/13 108/228/13
